<svg width="112" height="22" viewBox="0 0 112 22" fill="none" xmlns="http://www.w3.org/2000/svg">
<path d="M26.205 19V4.3H32.4C33.968 4.3 35.347 4.608 36.537 5.224C37.741 5.84 38.672 6.701 39.33 7.807C40.002 8.913 40.338 10.194 40.338 11.65C40.338 13.106 40.002 14.387 39.33 15.493C38.672 16.599 37.741 17.46 36.537 18.076C35.347 18.692 33.968 19 32.4 19H26.205ZM28.305 17.173H32.274C33.492 17.173 34.542 16.942 35.424 16.48C36.32 16.018 37.013 15.374 37.503 14.548C37.993 13.708 38.238 12.742 38.238 11.65C38.238 10.544 37.993 9.578 37.503 8.752C37.013 7.926 36.32 7.282 35.424 6.82C34.542 6.358 33.492 6.127 32.274 6.127H28.305V17.173ZM48.3666 19.126C47.1766 19.126 46.1266 18.881 45.2166 18.391C44.3206 17.901 43.6206 17.229 43.1166 16.375C42.6266 15.521 42.3816 14.541 42.3816 13.435C42.3816 12.329 42.6196 11.349 43.0956 10.495C43.5856 9.641 44.2506 8.976 45.0906 8.5C45.9446 8.01 46.9036 7.765 47.9676 7.765C49.0456 7.765 49.9976 8.003 50.8236 8.479C51.6496 8.955 52.2936 9.627 52.7556 10.495C53.2316 11.349 53.4696 12.35 53.4696 13.498C53.4696 13.582 53.4626 13.68 53.4486 13.792C53.4486 13.904 53.4416 14.009 53.4276 14.107H43.9566V12.658H52.3776L51.5586 13.162C51.5726 12.448 51.4256 11.811 51.1176 11.251C50.8096 10.691 50.3826 10.257 49.8366 9.949C49.3046 9.627 48.6816 9.466 47.9676 9.466C47.2676 9.466 46.6446 9.627 46.0986 9.949C45.5526 10.257 45.1256 10.698 44.8176 11.272C44.5096 11.832 44.3556 12.476 44.3556 13.204V13.54C44.3556 14.282 44.5236 14.947 44.8596 15.535C45.2096 16.109 45.6926 16.557 46.3086 16.879C46.9246 17.201 47.6316 17.362 48.4296 17.362C49.0876 17.362 49.6826 17.25 50.2146 17.026C50.7606 16.802 51.2366 16.466 51.6426 16.018L52.7556 17.32C52.2516 17.908 51.6216 18.356 50.8656 18.664C50.1236 18.972 49.2906 19.126 48.3666 19.126ZM59.611 19.126C58.687 19.126 57.805 19 56.965 18.748C56.139 18.496 55.488 18.188 55.012 17.824L55.852 16.228C56.328 16.55 56.916 16.823 57.616 17.047C58.316 17.271 59.03 17.383 59.758 17.383C60.696 17.383 61.368 17.25 61.774 16.984C62.194 16.718 62.404 16.347 62.404 15.871C62.404 15.521 62.278 15.248 62.026 15.052C61.774 14.856 61.438 14.709 61.018 14.611C60.612 14.513 60.157 14.429 59.653 14.359C59.149 14.275 58.645 14.177 58.141 14.065C57.637 13.939 57.175 13.771 56.755 13.561C56.335 13.337 55.999 13.036 55.747 12.658C55.495 12.266 55.369 11.748 55.369 11.104C55.369 10.432 55.558 9.844 55.936 9.34C56.314 8.836 56.846 8.451 57.532 8.185C58.232 7.905 59.058 7.765 60.01 7.765C60.738 7.765 61.473 7.856 62.215 8.038C62.971 8.206 63.587 8.451 64.063 8.773L63.202 10.369C62.698 10.033 62.173 9.802 61.627 9.676C61.081 9.55 60.535 9.487 59.989 9.487C59.107 9.487 58.449 9.634 58.015 9.928C57.581 10.208 57.364 10.572 57.364 11.02C57.364 11.398 57.49 11.692 57.742 11.902C58.008 12.098 58.344 12.252 58.75 12.364C59.17 12.476 59.632 12.574 60.136 12.658C60.64 12.728 61.144 12.826 61.648 12.952C62.152 13.064 62.607 13.225 63.013 13.435C63.433 13.645 63.769 13.939 64.021 14.317C64.287 14.695 64.42 15.199 64.42 15.829C64.42 16.501 64.224 17.082 63.832 17.572C63.44 18.062 62.887 18.447 62.173 18.727C61.459 18.993 60.605 19.126 59.611 19.126ZM81.0125 7.765C81.9085 7.765 82.6995 7.94 83.3855 8.29C84.0715 8.64 84.6035 9.172 84.9815 9.886C85.3735 10.6 85.5695 11.503 85.5695 12.595V19H83.5535V12.826C83.5535 11.748 83.3015 10.936 82.7975 10.39C82.2935 9.844 81.5865 9.571 80.6765 9.571C80.0045 9.571 79.4165 9.711 78.9125 9.991C78.4085 10.271 78.0165 10.684 77.7365 11.23C77.4705 11.776 77.3375 12.455 77.3375 13.267V19H75.3215V12.826C75.3215 11.748 75.0695 10.936 74.5655 10.39C74.0755 9.844 73.3685 9.571 72.4445 9.571C71.7865 9.571 71.2055 9.711 70.7015 9.991C70.1975 10.271 69.8055 10.684 69.5255 11.23C69.2455 11.776 69.1055 12.455 69.1055 13.267V19H67.0895V7.87H69.0215V10.831L68.7065 10.075C69.0565 9.347 69.5955 8.78 70.3235 8.374C71.0515 7.968 71.8985 7.765 72.8645 7.765C73.9285 7.765 74.8455 8.031 75.6155 8.563C76.3855 9.081 76.8895 9.872 77.1275 10.936L76.3085 10.6C76.6445 9.746 77.2325 9.06 78.0725 8.542C78.9125 8.024 79.8925 7.765 81.0125 7.765ZM94.196 19.126C93.076 19.126 92.082 18.881 91.214 18.391C90.346 17.901 89.66 17.229 89.156 16.375C88.652 15.507 88.4 14.527 88.4 13.435C88.4 12.329 88.652 11.349 89.156 10.495C89.66 9.641 90.346 8.976 91.214 8.5C92.082 8.01 93.076 7.765 94.196 7.765C95.302 7.765 96.289 8.01 97.157 8.5C98.039 8.976 98.725 9.641 99.215 10.495C99.719 11.335 99.971 12.315 99.971 13.435C99.971 14.541 99.719 15.521 99.215 16.375C98.725 17.229 98.039 17.901 97.157 18.391C96.289 18.881 95.302 19.126 94.196 19.126ZM94.196 17.362C94.91 17.362 95.547 17.201 96.107 16.879C96.681 16.557 97.129 16.102 97.451 15.514C97.773 14.912 97.934 14.219 97.934 13.435C97.934 12.637 97.773 11.951 97.451 11.377C97.129 10.789 96.681 10.334 96.107 10.012C95.547 9.69 94.91 9.529 94.196 9.529C93.482 9.529 92.845 9.69 92.285 10.012C91.725 10.334 91.277 10.789 90.941 11.377C90.605 11.951 90.437 12.637 90.437 13.435C90.437 14.219 90.605 14.912 90.941 15.514C91.277 16.102 91.725 16.557 92.285 16.879C92.845 17.201 93.482 17.362 94.196 17.362ZM106.101 19.126C105.177 19.126 104.295 19 103.455 18.748C102.629 18.496 101.978 18.188 101.502 17.824L102.342 16.228C102.818 16.55 103.406 16.823 104.106 17.047C104.806 17.271 105.52 17.383 106.248 17.383C107.186 17.383 107.858 17.25 108.264 16.984C108.684 16.718 108.894 16.347 108.894 15.871C108.894 15.521 108.768 15.248 108.516 15.052C108.264 14.856 107.928 14.709 107.508 14.611C107.102 14.513 106.647 14.429 106.143 14.359C105.639 14.275 105.135 14.177 104.631 14.065C104.127 13.939 103.665 13.771 103.245 13.561C102.825 13.337 102.489 13.036 102.237 12.658C101.985 12.266 101.859 11.748 101.859 11.104C101.859 10.432 102.048 9.844 102.426 9.34C102.804 8.836 103.336 8.451 104.022 8.185C104.722 7.905 105.548 7.765 106.5 7.765C107.228 7.765 107.963 7.856 108.705 8.038C109.461 8.206 110.077 8.451 110.553 8.773L109.692 10.369C109.188 10.033 108.663 9.802 108.117 9.676C107.571 9.55 107.025 9.487 106.479 9.487C105.597 9.487 104.939 9.634 104.505 9.928C104.071 10.208 103.854 10.572 103.854 11.02C103.854 11.398 103.98 11.692 104.232 11.902C104.498 12.098 104.834 12.252 105.24 12.364C105.66 12.476 106.122 12.574 106.626 12.658C107.13 12.728 107.634 12.826 108.138 12.952C108.642 13.064 109.097 13.225 109.503 13.435C109.923 13.645 110.259 13.939 110.511 14.317C110.777 14.695 110.91 15.199 110.91 15.829C110.91 16.501 110.714 17.082 110.322 17.572C109.93 18.062 109.377 18.447 108.663 18.727C107.949 18.993 107.095 19.126 106.101 19.126Z" fill="white"/>
<path d="M4.44756 19C3.24682 19 2.13185 18.5515 1.30277 17.7244C0.889748 17.3195 0.562115 16.8387 0.338583 16.3096C0.115051 15.7805 0 15.2134 0 14.6406C0 14.0679 0.115051 13.5008 0.338583 12.9717C0.562115 12.4425 0.889748 11.9618 1.30277 11.5568L5.26235 7.67404C6.09801 6.85915 7.22862 6.40173 8.40714 6.40173C9.58565 6.40173 10.7163 6.85915 11.5519 7.67404C11.9665 8.07814 12.2955 8.55863 12.52 9.08786C12.7445 9.6171 12.8601 10.1846 12.8601 10.7578C12.8601 11.331 12.7445 11.8986 12.52 12.4278C12.2955 12.9571 11.9665 13.4375 11.5519 13.8416C11.266 14.122 10.8229 14.122 10.537 13.8416C10.2511 13.5613 10.2511 13.1268 10.537 12.8464C11.7092 11.697 11.7092 9.81869 10.537 8.65525C9.35057 7.49182 7.43511 7.49182 6.26296 8.65525L2.30339 12.538C1.13124 13.6875 1.11695 15.5658 2.30339 16.7292C2.87517 17.2899 3.61848 17.6123 4.44756 17.5983C5.24805 17.5983 6.00566 17.2899 6.57744 16.7292C6.86333 16.4489 7.30646 16.4489 7.59235 16.7292C7.87824 17.0096 7.87824 17.4441 7.59235 17.7244C6.74898 18.5515 5.63401 19 4.44756 19Z" fill="#33D8B8"/>
<path d="M11.6233 17.5562C10.4369 17.5562 9.30764 17.1077 8.47856 16.2806C8.06553 15.8757 7.7379 15.3949 7.51436 14.8658C7.29083 14.3367 7.17578 13.7696 7.17578 13.1968C7.17578 12.6241 7.29083 12.057 7.51436 11.5279C7.7379 10.9988 8.06553 10.518 8.47856 10.113C8.76445 9.8327 9.20757 9.84671 9.49346 10.113C9.77935 10.3934 9.76506 10.8279 9.49346 11.1083C8.32132 12.2577 8.30702 14.136 9.49346 15.2994C10.0652 15.8601 10.8514 16.1825 11.6376 16.1685C12.4381 16.1685 13.1957 15.8601 13.7675 15.2994L17.6985 11.4447C18.2703 10.884 18.5848 10.1411 18.5848 9.35611C18.5848 8.57114 18.2703 7.81421 17.6985 7.26753C16.5121 6.1041 14.5966 6.1041 13.4244 7.26753C13.1386 7.54788 12.6954 7.53386 12.4095 7.26753C12.1237 6.98719 12.1379 6.55265 12.4095 6.27231C13.2452 5.45742 14.3758 5 15.5543 5C16.7328 5 17.8635 5.45742 18.6991 6.27231C19.5425 7.09933 19.9999 8.19268 19.9999 9.35611C19.9999 10.5195 19.5425 11.6129 18.6991 12.4399L14.7681 16.2947C13.9248 17.1217 12.8098 17.5702 11.6233 17.5702V17.5562Z" fill="#33D8B8"/>
</svg>
